<?xml version="1.0" standalone="no"?>
<!DOCTYPE svg PUBLIC "-//W3C//DTD SVG 20010904//EN"
 "http://www.w3.org/TR/2001/REC-SVG-20010904/DTD/svg10.dtd">
<svg version="1.0" xmlns="http://www.w3.org/2000/svg"
 width="100.000000pt" height="100.000000pt" viewBox="0 0 100.000000 100.000000"
 preserveAspectRatio="xMidYMid meet">

<g transform="translate(0.000000,100.000000) scale(0.100000,-0.100000)"
fill="#233e99" stroke="none">
<path d="M253 915 l-43 -65 16 -40 c9 -23 14 -43 12 -46 -3 -3 -24 2 -46 11
l-41 17 -63 -43 c-35 -23 -65 -43 -67 -45 -5 -4 20 -136 29 -153 4 -8 27 -22
51 -31 l44 -17 -50 -24 c-50 -24 -50 -24 -62 -89 -7 -36 -12 -72 -12 -80 0 -8
29 -34 64 -57 l65 -43 40 16 c23 9 43 14 46 11 3 -2 -2 -23 -11 -45 l-17 -41
43 -63 c23 -35 43 -65 45 -67 4 -5 136 20 153 29 8 4 22 27 32 51 l17 44 20
-47 c22 -50 42 -61 143 -74 l44 -5 42 65 43 66 -16 40 c-9 23 -14 43 -12 46 3
3 24 -2 46 -11 l41 -17 63 43 c35 23 64 43 66 45 4 2 -16 117 -24 147 -3 10
-23 25 -45 33 -21 9 -39 19 -39 23 0 4 19 15 43 26 41 20 42 21 55 90 7 39 10
75 8 82 -3 6 -32 30 -65 52 l-60 41 -41 -16 c-22 -9 -43 -14 -46 -11 -3 2 2
23 11 45 l17 41 -43 63 c-23 35 -44 65 -45 67 -3 4 -111 -15 -147 -25 -10 -3
-25 -23 -33 -45 -9 -21 -19 -39 -23 -39 -4 0 -15 19 -26 42 -19 41 -23 44 -80
55 -95 19 -96 19 -142 -52z m220 -46 c16 -41 16 -43 -14 -112 -16 -39 -31 -73
-33 -74 -5 -5 -130 48 -143 60 -7 7 -19 30 -28 51 l-16 39 33 -7 c107 -21 102
-23 137 33 18 28 36 51 41 51 4 0 14 -19 23 -41z m117 -9 c35 -55 36 -55 110
-39 28 6 53 9 56 7 2 -3 -4 -23 -14 -46 -15 -38 -24 -45 -90 -73 -41 -17 -76
-29 -78 -27 -2 3 -17 37 -33 76 -29 71 -29 72 -13 112 9 22 20 40 23 40 4 0
21 -22 39 -50z m-358 -122 c21 -7 34 -26 58 -85 17 -41 30 -77 28 -79 -3 -2
-35 -16 -74 -32 -67 -28 -70 -28 -112 -13 -23 8 -42 18 -42 22 0 4 23 22 51
40 51 32 51 33 45 76 -3 24 -9 55 -12 70 -6 23 -5 25 12 19 10 -5 31 -12 46
-18z m589 -38 c-16 -74 -16 -75 39 -110 28 -18 50 -35 50 -40 0 -4 -19 -14
-41 -23 -41 -16 -43 -16 -112 14 -39 16 -73 31 -75 33 -2 2 11 37 28 78 29 68
35 76 73 90 23 8 44 14 45 12 2 -1 -1 -26 -7 -54z m-575 -241 c41 -17 74 -32
74 -33 0 -11 -54 -134 -63 -143 -7 -7 -30 -19 -51 -28 l-39 -16 7 33 c21 107
23 102 -33 137 -28 18 -51 37 -51 41 0 5 49 30 78 39 2 1 37 -13 78 -30z m627
11 c20 -8 37 -17 37 -21 0 -4 -22 -21 -50 -39 -55 -35 -54 -34 -40 -110 6 -29
9 -55 7 -57 -2 -1 -22 5 -45 15 -38 15 -45 24 -73 90 -17 41 -29 76 -26 78 6
7 142 62 147 61 3 -1 22 -9 43 -17z m-415 -225 c30 -74 30 -75 14 -115 -9 -22
-20 -40 -23 -40 -4 0 -21 23 -39 50 -35 54 -43 57 -119 39 -24 -5 -45 -8 -47
-6 -2 2 4 22 14 45 15 37 25 45 87 72 39 16 73 30 76 30 4 0 20 -34 37 -75z
m209 39 c45 -20 57 -31 73 -66 10 -24 17 -44 15 -46 -2 -2 -27 1 -55 7 -74 16
-75 16 -110 -39 -18 -27 -35 -50 -40 -50 -4 0 -14 19 -23 41 -16 41 -16 43 14
116 35 82 27 80 126 37z"/>
</g>
</svg>
